<?xml version="1.0" encoding="iso-8859-1"?>
<!-- Generator: Adobe Illustrator 19.0.0, SVG Export Plug-In . SVG Version: 6.00 Build 0)  -->
<svg version="1.1" id="Layer_1" xmlns="http://www.w3.org/2000/svg" xmlns:xlink="http://www.w3.org/1999/xlink" x="0px" y="0px"
	 viewBox="0 0 496.2 496.2" style="enable-background:new 0 0 496.2 496.2;" xml:space="preserve">
<path style="fill:#32BEA6;" d="M496.2,248.1C496.2,111.1,385.1,0,248.1,0S0,111.1,0,248.1s111.1,248.1,248.1,248.1
	S496.2,385.1,496.2,248.1z"/>
<path style="fill:#FFFFFF;" d="M372.6,400.7c0,6.6-5.4,12-12,12h-225c-6.6,0-12-5.4-12-12V104.3c0-6.6,5.4-12,12-12h225
	c6.6,0,12,5.4,12,12V400.7z"/>
<g>
	<circle style="fill:#CCCCCC;" cx="248.1" cy="263.8" r="81"/>
	<path style="fill:#CCCCCC;" d="M336.1,279.4c0,1.4-1.2,2.6-2.6,2.6h-17.8c-1.4,0-2.6-1.2-2.6-2.6v-30.6c0-1.4,1.2-2.6,2.6-2.6h17.8
		c1.4,0,2.6,1.2,2.6,2.6V279.4z"/>
</g>
<circle style="fill:#FFFFFF;" cx="248.1" cy="263.8" r="78.2"/>
<circle style="fill:#CECECE;" cx="248.1" cy="263.8" r="60.7"/>
<path style="fill:#E5E5E5;" d="M208.5,300.6c-21.1-21.1-21.1-55.3,0-76.4s55.3-21.1,76.4,0S229.6,321.7,208.5,300.6z"/>
<rect x="321.8" y="367.8" style="fill:#CECECE;" width="34.7" height="27.3"/>
<rect x="324.6" y="370" style="fill:#FFFFFF;" width="29" height="22.8"/>
<line style="fill:none;stroke:#CCCCCC;stroke-width:3;stroke-linecap:round;stroke-linejoin:round;stroke-miterlimit:10;" x1="136.6" y1="163.9" x2="352.6" y2="163.9"/>
<circle style="fill:#CCCCCC;" cx="247.1" cy="122.6" r="13"/>
<circle style="fill:#FFFFFF;" cx="247.1" cy="122.6" r="11"/>
<path style="fill:#BABABA;" d="M247.1,122.1c-0.6,0-1-0.4-1-1v-11.5c0-0.6,0.4-1,1-1s1,0.4,1,1v11.5
	C248.1,121.7,247.7,122.1,247.1,122.1z"/>
<g>
	<path style="fill:#CCCCCC;" d="M235.2,110.7c2.5-2.5,5.8-4.2,9.2-4.7v-1c-3.8,0.6-7.2,2.3-9.9,5c-2.9,2.9-4.7,6.7-5.1,10.8h1
		C230.8,117,232.5,113.4,235.2,110.7z"/>
	<path style="fill:#CCCCCC;" d="M259,134.5c-2.5,2.5-5.8,4.2-9.2,4.7v1c3.8-0.6,7.2-2.3,9.9-5c2.5-2.5,4.2-5.7,4.9-9.1h-1
		C262.9,129.3,261.3,132.2,259,134.5z"/>
	<path style="fill:#CCCCCC;" d="M259,110.7c2.7,2.7,4.4,6.3,4.8,10.1h1c-0.4-4.1-2.2-7.8-5.1-10.8c-2.7-2.7-6.2-4.4-9.9-5v1
		C253.2,106.5,256.5,108.2,259,110.7z"/>
	<path style="fill:#CCCCCC;" d="M235.2,134.5c-2.3-2.3-3.9-5.2-4.6-8.4h-1c0.7,3.4,2.4,6.6,4.9,9.1c2.7,2.7,6.2,4.4,9.9,5v-1
		C241,138.7,237.7,137,235.2,134.5z"/>
	<polygon style="fill:#CCCCCC;" points="141.1,144.9 201.6,144.9 201.5,154.6 141.2,154.6 	"/>
	<polygon style="fill:#CCCCCC;" points="141.1,144.9 201.6,144.9 201.7,126.6 141,126.6 	"/>
</g>
<rect x="143" y="128.3" style="fill:#FFFFFF;" width="56.7" height="17"/>
<rect x="313.4" y="108.9" style="fill:#606060;" width="37.7" height="17"/>
<polygon style="fill:#706F6F;" points="313.4,125.9 351.1,108.9 313.4,108.9 "/>
<circle style="fill:#CCCCCC;" cx="347.1" cy="150.4" r="5.5"/>
<circle style="fill:#FFFFFF;" cx="347.1" cy="150.4" r="4.4"/>
<circle style="fill:#CCCCCC;" cx="331.4" cy="150.4" r="5.5"/>
<circle style="fill:#FFFFFF;" cx="331.4" cy="150.4" r="4.4"/>
<circle style="fill:#CCCCCC;" cx="315.6" cy="150.4" r="5.5"/>
<circle style="fill:#FFFFFF;" cx="315.6" cy="150.4" r="4.4"/>
<circle style="fill:#CCCCCC;" cx="300" cy="150.4" r="5.5"/>
<circle style="fill:#FFFFFF;" cx="300" cy="150.4" r="4.4"/>
<circle style="fill:#CCCCCC;" cx="284.3" cy="150.4" r="5.5"/>
<circle style="fill:#FFFFFF;" cx="284.3" cy="150.4" r="4.4"/>
<g>
</g>
<g>
</g>
<g>
</g>
<g>
</g>
<g>
</g>
<g>
</g>
<g>
</g>
<g>
</g>
<g>
</g>
<g>
</g>
<g>
</g>
<g>
</g>
<g>
</g>
<g>
</g>
<g>
</g>
</svg>
